<svg xmlns="http://www.w3.org/2000/svg" viewBox="0 0 200 220" width="60" height="66">
  <g fill="#f5d8a8">
    <path d="M78 28 C 72 18, 64 14, 60 22 C 58 26, 62 30, 66 30 C 70 30, 74 26, 78 28 Z" />
    <path d="M122 28 C 128 18, 136 14, 140 22 C 142 26, 138 30, 134 30 C 130 30, 126 26, 122 28 Z" />
  </g>
  <g fill="none" stroke="#7a4a2a" stroke-width="3" stroke-linecap="round">
    <path d="M70 24 C 64 16, 56 14, 54 22" />
    <path d="M130 24 C 136 16, 144 14, 146 22" />
  </g>
  <path d="M100 30 q 2 -4 4 0" stroke="#7a4a2a" stroke-width="2" fill="none" stroke-linecap="round" />
  <ellipse cx="100" cy="60" rx="42" ry="38" fill="#f5d8a8" />
  <ellipse cx="62" cy="48" rx="8" ry="11" fill="#e6c79a" transform="rotate(-25 62 48)" />
  <ellipse cx="138" cy="48" rx="8" ry="11" fill="#e6c79a" transform="rotate(25 138 48)" />
  <path d="M78 64 q 6 4 12 0" stroke="#3a2418" stroke-width="2.5" fill="none" stroke-linecap="round" />
  <path d="M110 64 q 6 4 12 0" stroke="#3a2418" stroke-width="2.5" fill="none" stroke-linecap="round" />
  <circle cx="76" cy="74" r="4" fill="#f4a8a0" opacity="0.6" />
  <circle cx="124" cy="74" r="4" fill="#f4a8a0" opacity="0.6" />
  <ellipse cx="100" cy="150" rx="48" ry="55" fill="#f5d8a8" />
  <ellipse cx="100" cy="170" rx="36" ry="28" fill="#ead0a8" opacity="0.5" />
  <rect x="76" y="195" width="10" height="18" rx="4" fill="#e6c79a" />
  <rect x="114" y="195" width="10" height="18" rx="4" fill="#e6c79a" />
  <g fill="#f5d35a">
    <path d="M170 40 l 2 6 l 6 2 l -6 2 l -2 6 l -2 -6 l -6 -2 l 6 -2 z" />
  </g>
</svg>
